<svg xmlns="http://www.w3.org/2000/svg" enable-background="new 0 0 512 512" viewBox="0 0 512 512" id="cry">
  <path fill="#A2602B" d="M405.026 73.356c-3.3-7.318-11.876-10.646-19.252-7.378-7.347 3.24-10.616 11.905-7.378 19.252 8.607 19.372 1.859 32.687 1.259 33.947-1.618 3.358-4.288 7.586-7.737 8.306-5.188 1.17-13.164-3.749-15.593-5.758-.33-.27-.63-.481-.929-.72 9.415-18.142 6.837-40.574 6.357-43.752-1.109-7.976-8.606-13.435-16.402-12.355-7.918 1.079-13.494 8.397-12.415 16.404.719 5.457.689 16.072-2.189 23.72-5.788-2.728-11.245-4.829-15.954-6.298.811-8.426.33-17.752-2.099-28.008-1.859-7.857-9.776-12.714-17.543-10.886-7.797 1.83-12.655 9.687-10.824 17.543 7.916 33.677-12.986 46.992-15.564 48.49-6.928 3.898-9.476 12.655-5.669 19.673 2.67 4.887 7.648 7.586 12.836 7.586 2.338 0 4.738-.54 6.926-1.769 7.198-3.869 16.674-12.206 23.571-24.71 8.607 2.788 20.752 7.976 30.588 16.914 1.799 1.529 16.014 13.224 33.347 13.224 2.429 0 4.947-.24 7.557-.809 8.276-1.71 19.882-7.318 27.528-23.301C410.843 123.196 416.84 100.015 405.026 73.356zM234.214 125.776c-.24-.121-23.631-13.346-15.354-48.401 1.859-7.827-2.999-15.684-10.857-17.513-7.826-1.89-15.653 2.999-17.513 10.826-2.429 10.286-2.908 19.582-2.128 28.038-4.738 1.469-10.167 3.539-15.954 6.267-2.879-7.646-2.91-18.233-2.189-23.689 1.11-8.007-4.439-15.325-12.415-16.404-8.007-1.23-15.323 4.379-16.402 12.386-.481 3.178-3.029 25.579 6.356 43.692-.149.149-.33.24-.479.359-2.85 2.398-10.977 7.256-16.045 6.148-2.758-.6-5.368-3.389-8.065-8.967-.301-.6-7.047-13.915 1.618-33.287 3.24-7.347-.06-16.012-7.407-19.252-7.378-3.269-15.983.06-19.252 7.378-11.815 26.659-5.818 49.84-.869 58.477 8.127 16.823 19.731 22.43 28.008 24.141 2.578.57 5.068.809 7.526.809 17.333 0 31.607-11.726 33.677-13.554 9.656-8.756 21.71-13.825 30.258-16.614 6.897 12.506 16.403 20.872 23.54 24.741 2.249 1.228 4.618 1.769 6.988 1.769 5.157 0 10.166-2.699 12.803-7.586C243.93 138.49 241.291 129.643 234.214 125.776z"></path>
  <linearGradient id="a" x1="336.766" x2="462.995" y1="221.901" y2="221.901" gradientTransform="translate(1.057)" gradientUnits="userSpaceOnUse">
    <stop offset="0" stop-color="#ffb36b"></stop>
    <stop offset="1" stop-color="#fd9959"></stop>
  </linearGradient>
  <path fill="url(#a)" d="M462.813,231.812c-20.242-64.624-100.25-66.632-110.686-66.632c0,0-0.031,0-0.06,0
		c-5.008,0.12-9.567,2.788-12.176,7.077c-2.549,4.228-2.759,9.565-0.54,14.035l40.304,80.367c1.95,3.779,5.429,6.598,9.567,7.588
		c11.755,2.879,22.22,4.377,31.127,4.377c16.734,0,29.029-5.007,36.616-14.873C467.31,250.344,463.471,234.212,462.813,231.812z"></path>
  <path fill="#A2602B" d="M453.995,266.538c0,0-3.958,4.379-11.695,8.306c-0.299,0.121-0.419,0.121-0.689,0.27
		c-6.117,2.34-13.135,3.539-21.291,3.539c-4.649,0-9.627-0.299-14.964-1.199c-0.6-25.91-7.588-50.23-19.403-71.521
		C411.143,211.481,445.689,226.325,453.995,266.538z" opacity=".25"></path>
  <linearGradient id="b" x1="-3481.431" x2="-3355.201" y1="221.916" y2="221.916" gradientTransform="matrix(-1 0 0 1 -3315.557 0)" gradientUnits="userSpaceOnUse">
    <stop offset="0" stop-color="#ffb36b"></stop>
    <stop offset="1" stop-color="#fd9959"></stop>
  </linearGradient>
  <path fill="url(#b)" d="M40.912,231.812
		c20.242-64.624,100.25-66.603,110.656-66.603c0,0,0.029,0,0.06,0c5.007,0.12,9.565,2.79,12.205,7.047
		c2.52,4.258,2.728,9.565,0.51,14.035l-40.304,80.367c-1.919,3.779-5.398,6.598-9.565,7.588
		c-11.756,2.879-22.192,4.377-31.128,4.377c-16.703,0-29.028-5.007-36.645-14.844C36.384,250.375,40.222,234.241,40.912,231.812z"></path>
  <path fill="#A2602B" d="M49.758,266.569c0,0,3.898,4.348,11.635,8.306c0.27,0.12,0.421,0.12,0.72,0.27
		c6.117,2.338,13.104,3.508,21.291,3.508c4.618,0,9.596-0.299,14.995-1.17c0.539-25.939,7.557-50.23,19.341-71.55
		C92.551,211.481,58.036,226.354,49.758,266.569z" opacity=".25"></path>
  <linearGradient id="c" x1="98.548" x2="405.145" y1="281.278" y2="281.278" gradientUnits="userSpaceOnUse">
    <stop offset="0" stop-color="#ffd599"></stop>
    <stop offset="1" stop-color="#ffc57c"></stop>
  </linearGradient>
  <path fill="url(#c)" d="M251.847,127.994
		c-84.506,0-153.299,68.762-153.299,153.268c0,84.537,68.793,153.299,153.299,153.299c84.537,0,153.299-68.762,153.299-153.299
		C405.145,196.756,336.383,127.994,251.847,127.994z"></path>
  <path fill="#FFF" d="M154.026 187.191c0 0 16.644-41.684 63.004-33.857 0 0 10.436 3.628 8.368 13.524 0 0-15.145 29.238-56.289 32.358C169.11 199.216 152.947 201.825 154.026 187.191zM137.923 202.394c0 0-9.716 7.467-6.327 18.173 0 0 1.829 4.169 8.606 0 0 0 5.999-5.487 4.408-15.385C144.61 205.183 143.59 199.396 137.923 202.394z" opacity=".4"></path>
  <path fill="#E0AC69" d="M405.115,281.262c0,84.506-68.762,153.239-153.237,153.239
		c-46.631,0-88.255-20.841-116.264-53.738c10.795,6.598,164.604,96.89,242.962-54.938c0,0,33.497-42.943,4.259-123.971
		c0,0,0.149,0.181,0.299,0.481C397.079,225.334,405.115,252.445,405.115,281.262z" opacity=".7"></path>
  <path fill="#A2602B" d="M178.827 227.823c-4.379 0-8.308-.419-11.515-1.079-7.887-1.558-13.015-9.235-11.455-17.123 1.558-7.827 9.175-13.015 17.032-11.486 2.85.481 27.74 4.228 39.525-19.312 3.597-7.196 12.325-10.166 19.521-6.507 7.227 3.599 10.137 12.325 6.538 19.552C224.168 220.417 197.448 227.823 178.827 227.823zM325.287 227.823c-18.592 0-45.341-7.407-59.616-35.956-3.599-7.227-.689-15.953 6.507-19.552 7.198-3.659 15.923-.689 19.553 6.507 11.815 23.6 36.736 19.822 39.524 19.312 7.857-1.348 15.474 3.749 16.974 11.606 1.499 7.857-3.57 15.444-11.426 17.003C333.594 227.404 329.666 227.823 325.287 227.823z"></path>
  <path fill="#75CCCA" d="M344.18 256.372c-.421-6.928-5.669-12.564-12.535-13.494l-38.985-5.428c-3.958-.51-8.067.6-11.214 3.118-3.12 2.52-5.068 6.267-5.309 10.286l-12.655 179.179c-.299 4.047 1.11 7.976 3.869 10.946 2.759 2.939 6.598 4.648 10.645 4.648h62.585c4.018 0 7.857-1.68 10.616-4.618 2.73-2.908 4.199-6.837 3.929-10.855L344.18 256.372zM226.327 250.854c-.299-4.018-2.249-7.766-5.368-10.286-3.149-2.518-7.167-3.628-11.185-3.118l-39.014 5.428c-6.837.93-12.085 6.567-12.535 13.494l-10.917 173.781c-.27 4.018 1.17 7.947 3.929 10.855 2.759 2.939 6.567 4.618 10.585 4.618h62.585c.091-.031.21 0 .27 0 8.067 0 14.574-6.507 14.574-14.574 0-1.32-.15-2.639-.51-3.929L226.327 250.854z"></path>
  <path fill="#A2602B" d="M350.957 274.935c-.689 0-1.409-.031-2.099-.12l-79.499-11.546c-7.946-1.168-13.494-8.577-12.324-16.493 1.17-7.947 8.486-13.464 16.493-12.355l79.499 11.546c7.976 1.139 13.464 8.577 12.324 16.553C364.272 269.747 358.064 274.935 350.957 274.935zM151.448 274.935c-7.138 0-13.346-5.188-14.394-12.415-1.17-7.976 4.377-15.414 12.324-16.553l79.468-11.546c8.007-1.109 15.383 4.408 16.522 12.355 1.17 7.916-4.348 15.325-12.325 16.493l-79.497 11.546C152.827 274.904 152.167 274.935 151.448 274.935z"></path>
  <path fill="#75CCCA" d="M355.186,430.093c0.15,4.107-1.199,8.007-3.929,10.915c-2.788,2.91-6.717,4.678-10.645,4.678h-62.645
		l50.259-16.613c9.177-1.02,11.515-11.515,11.515-11.515l5.518-144.902L355.186,430.093z"></path>
  <path fill="#3E829B" d="M355.186,430.093c0.15,4.107-1.199,8.007-3.929,10.915c-2.788,2.91-6.717,4.678-10.645,4.678
		h-62.645l50.259-16.613c9.177-1.02,11.515-11.515,11.515-11.515l5.518-144.902L355.186,430.093z" opacity=".3"></path>
  <path fill="#75CCCA" d="M239.403,430.993c0,8.036-6.538,14.603-14.545,14.634c0,0-0.15-0.15-0.27,0l-61.025,0.15l48.88-16.284
		c9.206-1.02,11.455-11.545,11.455-11.545l4.648-131.407l10.436,140.523C239.252,428.263,239.372,429.583,239.403,430.993z"></path>
  <path fill="#3E829B" d="M239.403,430.993c0,8.036-6.538,14.603-14.545,14.634c0,0-0.15-0.15-0.27,0l-61.025,0.15
		l48.88-16.284c9.206-1.02,11.455-11.545,11.455-11.545l4.648-131.407l10.436,140.523
		C239.252,428.263,239.372,429.583,239.403,430.993z" opacity=".3"></path>
  <path fill="#A2602B" d="M281.985,359.62c-3.089,0-6.267-0.989-8.907-3.058c-19.942-15.444-40.453-1.409-42.702,0.24
			c-6.507,4.649-15.593,3.329-20.362-3.148c-4.738-6.449-3.448-15.444,2.969-20.273c13.674-10.226,47.62-23.359,77.968,0.15
			c6.358,4.978,7.497,14.095,2.549,20.451C290.621,357.672,286.333,359.62,281.985,359.62z"></path>
  <g>
    <path fill="#A2602B" d="M430.935 401.843h-7.018v-7.017c0-8.067-6.507-14.605-14.543-14.605-8.067 0-14.574 6.538-14.574 14.605v7.017h-7.047c-8.067 0-14.574 6.508-14.574 14.545 0 8.096 6.507 14.574 14.574 14.574h7.047v7.017c0 8.067 6.507 14.575 14.574 14.575 8.036 0 14.543-6.508 14.543-14.575v-7.017h7.018c8.036 0 14.605-6.478 14.605-14.574C445.54 408.352 438.971 401.843 430.935 401.843zM84.965 324.235h-7.047v-7.017c0-8.067-6.507-14.574-14.545-14.574-8.067 0-14.603 6.507-14.603 14.574v7.017h-6.988c-8.038 0-14.605 6.538-14.605 14.605 0 8.007 6.567 14.574 14.605 14.574h6.988v6.988c0 8.067 6.536 14.574 14.603 14.574 8.038 0 14.545-6.507 14.545-14.574v-6.988h7.047c8.067 0 14.574-6.567 14.574-14.574C99.539 330.772 93.032 324.235 84.965 324.235zM470.249 136.54h-7.017v-7.047c0-8.036-6.567-14.543-14.605-14.543-8.036 0-14.574 6.507-14.574 14.543v7.047h-7.017c-8.038 0-14.545 6.568-14.545 14.574 0 8.007 6.507 14.575 14.545 14.575h7.017v7.017c0 8.036 6.538 14.545 14.574 14.545 8.038 0 14.605-6.508 14.605-14.545v-7.017h7.017c8.038 0 14.574-6.568 14.574-14.575C484.822 143.109 478.286 136.54 470.249 136.54z"></path>
  </g>
</svg>
