<svg xmlns="http://www.w3.org/2000/svg" width="512" height="512" style="isolation:isolate" id="lol">
  <radialGradient id="a" cx=".5" cy=".5" r=".5" fx=".5" fy=".5" gradientTransform="matrix(1280 5.89 185.031 1707.08 -441.515 -701.43)" gradientUnits="userSpaceOnUse">
    <stop offset="1.304%" stop-color="#974f2d"></stop>
    <stop offset="97.391%" stop-color="#532009"></stop>
  </radialGradient>
  <path fill="url(#a)" d="M408.944 138.234c14.22 17.175 25.455 36.136 31.805 55.096l35.409 105.719c31.312 93.49-14.572 183.192-102.4 200.191-64.992 12.58-170.524 12.58-235.516 0C50.414 482.241 4.53 392.539 35.842 299.049L71.251 193.33c6.338-18.926 17.544-37.852 31.728-55.002a122.878 122.878 0 0 1-17.871-5.068l-9.832-3.613C35.483 115.023 21.984 74.325 45.152 38.82l3.905-5.985c23.167-35.505 65.855-39.542 95.267-9.008l7.267 7.544c13.876 14.405 23.683 31.674 28.295 47.91 7.03-2.98 14.08-5.329 21.05-6.969 30.391-7.151 79.737-7.151 110.128 0 6.813 1.603 13.703 3.884 20.576 6.773 4.635-16.179 14.419-33.367 28.239-47.714l7.267-7.544c29.412-30.534 72.1-26.497 95.267 9.008l3.905 5.985c23.167 35.505 9.669 76.203-30.124 90.827l-9.832 3.613a122.547 122.547 0 0 1-17.418 4.974Z"></path>
  <radialGradient id="b" cx=".5" cy=".5" r=".5" fx=".5" fy=".5" gradientTransform="matrix(1262 -17.559 6 943.559 -364 -329.22)" gradientUnits="userSpaceOnUse">
    <stop offset="1.304%" stop-color="#ffcebb"></stop>
    <stop offset="89.705%" stop-color="#bb7c66"></stop>
  </radialGradient>
  <path fill="url(#b)" fill-rule="evenodd" d="M230.156 333.844c13.712.377 35.976.377 49.688 0 45.762-1.261 98.929 26.315 118.652 61.542 29.256 52.253-7.593 101.692-82.237 110.334-33.81 3.914-88.708 3.914-122.518 0-74.644-8.642-111.493-58.081-82.237-110.334 19.723-35.227 72.89-62.803 118.652-61.542Zm-78.389-239.4c2.854-13.111-4.228-32.327-18.119-46.748l-4.351-4.517c-17.611-18.282-43.17-15.865-57.041 5.393l-2.338 3.583c-13.871 21.259-5.789 45.627 18.037 54.382l5.887 2.164c11.68 4.292 23.997 5.431 34.248 3.778 7.556-6.621 15.502-12.693 23.677-18.035Zm207.936 0c-2.854-13.111 4.228-32.327 18.119-46.748l4.351-4.517c17.61-18.282 43.169-15.865 57.041 5.393l2.338 3.583c13.871 21.259 5.789 45.627-18.037 54.382l-5.887 2.164c-11.681 4.292-23.998 5.431-34.249 3.778-7.555-6.621-15.502-12.693-23.676-18.035Z"></path>
  <radialGradient id="c" cx=".5" cy=".5" r=".5" fx=".451" fy=".568" gradientTransform="matrix(-639.985 -22.865 -33.968 -358.725 636.091 602.05)" gradientUnits="userSpaceOnUse">
    <stop offset="2.609%" stop-color="#53250f"></stop>
    <stop offset="56.957%" stop-color="#37190b"></stop>
    <stop offset="72.609%" stop-color="#3e1c0c"></stop>
  </radialGradient>
  <path fill="url(#c)" d="m362.855 385.993-1.045.22c-56.666 11.913-148.612 12.631-205.2 1.602-8.347-1.627-13.291 3.74-11.032 11.978q20.727 75.598 113.561 75.598 92.835 0 114.673-77.683c2.311-8.223-2.598-13.472-10.957-11.715Z"></path>
  <linearGradient id="d" x1=".455" x2=".501" y1=".069" y2="1.025" gradientTransform="matrix(54.86 0 0 63.996 153.5 220.004)" gradientUnits="userSpaceOnUse">
    <stop offset="2.174%" stop-color="#53250f"></stop>
    <stop offset="97.391%" stop-color="#37190b"></stop>
  </linearGradient>
  <path fill="url(#d)" d="M156.9 235.3c-1.8-1.35-3-3.37-3.31-5.6-.32-2.23.26-4.5 1.61-6.3 1.35-1.8 3.37-3 5.6-3.31 2.23-.32 4.5.26 6.3 1.61l29.261 21.949c6.622 4.968 6.541 12.923-.182 17.754L166.96 282.4a8.497 8.497 0 0 1-6.33 1.49 8.503 8.503 0 0 1-5.53-3.43 8.497 8.497 0 0 1-1.49-6.33c.37-2.23 1.6-4.22 3.43-5.53l18.54-13.331c2.241-1.611 2.267-4.263.06-5.918L156.9 235.3Z"></path>
  <linearGradient id="e" x1=".455" x2=".501" y1=".069" y2="1.025" gradientTransform="matrix(54.86 0 0 63.996 303.64 220.004)" gradientUnits="userSpaceOnUse">
    <stop offset="2.174%" stop-color="#53250f"></stop>
    <stop offset="97.391%" stop-color="#37190b"></stop>
  </linearGradient>
  <path fill="url(#e)" d="M354.96 268.6a8.503 8.503 0 0 1 3.43 5.53c.36 2.22-.17 4.5-1.49 6.33a8.503 8.503 0 0 1-5.53 3.43c-2.22.36-4.5-.17-6.33-1.49l-29.219-20.997c-6.723-4.831-6.804-12.786-.182-17.754L344.9 221.7a8.496 8.496 0 0 1 6.3-1.61c2.23.31 4.25 1.51 5.6 3.31a8.496 8.496 0 0 1 1.61 6.3 8.476 8.476 0 0 1-3.31 5.6l-18.74 14.051c-2.207 1.655-2.181 4.307.06 5.918l18.54 13.331Z"></path>
  <radialGradient id="f" cx=".5" cy=".5" r=".5" fx=".517" fy=".494" gradientTransform="matrix(-414.5 -18 -22 -282.403 499.75 467.451)" gradientUnits="userSpaceOnUse">
    <stop offset="1.739%" stop-color="#572a15"></stop>
    <stop offset="56.957%" stop-color="#37190b"></stop>
  </radialGradient>
  <path fill="url(#f)" d="m277.305 364.886-9.108 1.221c-6.732.902-17.662.902-24.394 0l-9.108-1.221c-11.423-1.531-25.441-10.839-31.283-20.773l-5.1-8.671c-10.433-17.74-2.295-33.974 18.162-36.229l12.097-1.333c15.139-1.669 39.719-1.669 54.858 0l12.097 1.333c20.457 2.255 28.595 18.489 18.162 36.229l-5.1 8.671c-5.842 9.934-19.86 19.242-31.283 20.773Z"></path>
</svg>
