<svg xmlns="http://www.w3.org/2000/svg" width="128" height="128" fill-rule="evenodd" clip-rule="evenodd" image-rendering="optimizeQuality" shape-rendering="geometricPrecision" text-rendering="geometricPrecision" id="emoji-pro">
  <g>
    <path fill="#dfab7d" d="M 109.5,52.5 C 103.895,46.854 98.7284,47.1873 94,53.5C 92.6631,61.8568 96.1631,65.8568 104.5,65.5C 101.772,69.2757 99.2715,73.2757 97,77.5C 94.586,84.9098 92.086,92.2431 89.5,99.5C 86.8168,84.38 84.6501,69.0467 83,53.5C 78.4084,38.1211 68.5751,33.2878 53.5,39C 49.9612,40.9069 47.4612,43.7403 46,47.5C 43.9351,54.3436 42.6018,61.3436 42,68.5C 39.0788,73.3413 36.4121,78.3413 34,83.5C 32.9108,88.5556 33.7441,93.2223 36.5,97.5C 34.8333,98.1667 33.1667,98.8333 31.5,99.5C 30.8651,92.1516 30.0317,84.8183 29,77.5C 27.8428,73.178 25.6762,69.5113 22.5,66.5C 30.472,66.3636 33.972,62.3636 33,54.5C 28.7373,47.2629 23.5707,46.5962 17.5,52.5C 15.8561,52.7135 14.3561,52.3802 13,51.5C 5.78455,40.6419 2.61788,28.6419 3.5,15.5C 14.7188,15.1852 25.0521,18.0185 34.5,24C 36.317,25.7998 37.4837,27.9664 38,30.5C 41.2426,29.1284 44.4093,27.6284 47.5,26C 45.792,23.9565 43.792,22.2899 41.5,21C 44.8341,18.3264 48.5007,17.3264 52.5,18C 51.2604,15.088 49.5937,12.4213 47.5,10C 52.898,8.78132 57.398,10.2813 61,14.5C 61.2209,11.0957 60.7209,7.76232 59.5,4.5C 60,4.16667 60.5,3.83333 61,3.5C 70.1829,8.85285 76.6829,16.5195 80.5,26.5C 83.2796,27.9734 86.1129,29.3067 89,30.5C 90.5557,25.1239 94.0557,21.6239 99.5,20C 107.18,16.7639 115.18,15.2639 123.5,15.5C 124.382,28.6419 121.215,40.6419 114,51.5C 112.644,52.3802 111.144,52.7135 109.5,52.5 Z" opacity=".956"></path>
  </g>
  <g>
    <path fill="#c1885d" d="M 11.5,25.5 C 17.4329,25.3094 23.0996,26.4761 28.5,29C 30.019,30.3513 31.3523,31.8513 32.5,33.5C 27.4595,37.706 22.9595,42.3727 19,47.5C 16.9743,46.4798 15.6409,44.8132 15,42.5C 13.0371,36.9839 11.8704,31.3173 11.5,25.5 Z"></path>
  </g>
  <g>
    <path fill="#c1885d" d="M 107.5,25.5 C 110.167,25.5 112.833,25.5 115.5,25.5C 115.13,31.3173 113.963,36.9839 112,42.5C 111.359,44.8132 110.026,46.4798 108,47.5C 104.041,42.3727 99.5405,37.706 94.5,33.5C 97.8018,29.0221 102.135,26.3554 107.5,25.5 Z"></path>
  </g>
  <g>
    <path fill="#fee0b1" d="M 89.5,99.5 C 88.4742,109.192 83.1409,114.526 73.5,115.5C 68.0986,114.799 63.4319,112.466 59.5,108.5C 61.4571,104.004 62.7904,99.3374 63.5,94.5C 64.4881,89.3595 64.8214,84.0262 64.5,78.5C 68.8049,75.6771 73.1382,72.8437 77.5,70C 71.3384,69.5823 66.6717,72.0823 63.5,77.5C 60.2599,72.2589 55.5932,69.7589 49.5,70C 53.8618,72.8437 58.1951,75.6771 62.5,78.5C 62.8281,81.6851 62.8281,85.0184 62.5,88.5C 62.572,92.6891 61.7387,96.6891 60,100.5C 59.1519,102.874 57.8186,104.874 56,106.5C 51.1183,103.816 45.9516,101.816 40.5,100.5C 38.5956,100.262 37.2623,99.2624 36.5,97.5C 33.7441,93.2223 32.9108,88.5556 34,83.5C 36.4121,78.3413 39.0788,73.3413 42,68.5C 42.6018,61.3436 43.9351,54.3436 46,47.5C 47.4612,43.7403 49.9612,40.9069 53.5,39C 68.5751,33.2878 78.4084,38.1211 83,53.5C 84.6501,69.0467 86.8168,84.38 89.5,99.5 Z" opacity=".996"></path>
  </g>
  <g>
    <path fill="#404447" d="M 109.5,52.5 C 110.862,55.878 110.695,59.2113 109,62.5C 107.871,64.1412 106.371,65.1412 104.5,65.5C 96.1631,65.8568 92.6631,61.8568 94,53.5C 98.7284,47.1873 103.895,46.854 109.5,52.5 Z" opacity=".96"></path>
  </g>
  <g>
    <path fill="#434648" d="M 22.5,66.5 C 17.2826,63.1857 15.6159,58.5191 17.5,52.5C 23.5707,46.5962 28.7373,47.2629 33,54.5C 33.972,62.3636 30.472,66.3636 22.5,66.5 Z" opacity=".962"></path>
  </g>
  <g>
    <path fill="#957356" d="M 64.5,78.5 C 63.8333,78.5 63.1667,78.5 62.5,78.5C 58.1951,75.6771 53.8618,72.8437 49.5,70C 55.5932,69.7589 60.2599,72.2589 63.5,77.5C 66.6717,72.0823 71.3384,69.5823 77.5,70C 73.1382,72.8437 68.8049,75.6771 64.5,78.5 Z"></path>
  </g>
  <g>
    <path fill="#cfaf89" d="M 62.5,78.5 C 63.1667,78.5 63.8333,78.5 64.5,78.5C 64.8214,84.0262 64.4881,89.3595 63.5,94.5C 63.7947,92.2646 63.4614,90.2646 62.5,88.5C 62.8281,85.0184 62.8281,81.6851 62.5,78.5 Z"></path>
  </g>
  <g>
    <path fill="#957256" d="M 62.5,88.5 C 63.4614,90.2646 63.7947,92.2646 63.5,94.5C 62.7904,99.3374 61.4571,104.004 59.5,108.5C 63.4319,112.466 68.0986,114.799 73.5,115.5C 73.1667,115.5 72.8333,115.5 72.5,115.5C 70.1432,115.663 67.8098,115.497 65.5,115C 60.1822,111.176 54.5155,108.009 48.5,105.5C 45.796,103.829 43.1293,102.163 40.5,100.5C 45.9516,101.816 51.1183,103.816 56,106.5C 57.8186,104.874 59.1519,102.874 60,100.5C 61.7387,96.6891 62.572,92.6891 62.5,88.5 Z"></path>
  </g>
  <g>
    <path fill="#fd707e" d="M 36.5,97.5 C 37.2623,99.2624 38.5956,100.262 40.5,100.5C 43.1293,102.163 45.796,103.829 48.5,105.5C 47.1183,110.997 45.1183,116.331 42.5,121.5C 38.1059,124.152 33.6059,124.152 29,121.5C 27.767,119.134 26.9336,116.634 26.5,114C 27.2891,108.797 28.9558,103.964 31.5,99.5C 33.1667,98.8333 34.8333,98.1667 36.5,97.5 Z" opacity=".954"></path>
  </g>
  <g>
    <path fill="#fee0b1" d="M 48.5,105.5 C 54.5155,108.009 60.1822,111.176 65.5,115C 67.8098,115.497 70.1432,115.663 72.5,115.5C 63.7563,123.512 53.7563,125.512 42.5,121.5C 45.1183,116.331 47.1183,110.997 48.5,105.5 Z" opacity=".955"></path>
  </g>
</svg>
