<svg xmlns="http://www.w3.org/2000/svg" xml:space="preserve" id="shocked" x="0" y="0" enable-background="new 0 0 64 64" version="1.1" viewBox="0 0 64 64">
  <path fill="#ccc" d="M50.8,61c-0.6,0-1.2-0.1-1.8-0.3c-0.9-0.3-1.8-0.8-2.7-1.4H17.7c-0.4,0.4-0.9,0.7-1.4,0.9
		c-1,0.5-2,0.8-3.1,0.8c-0.8,0-1.5-0.1-2.2-0.3h0C5,59.3,6,52,6,52c1.2-5,2.3-10.4,2.3-25.4c0-4.8,1.4-9.3,3.9-13
		c1.5-2.2,3.3-4.1,5.4-5.7c3.5-2.7,7.7-4.4,12.4-4.8c0.6,0,1.3-0.1,1.9-0.1h0.2c5.4,0,10.3,1.8,14.3,4.8c2.1,1.6,3.9,3.5,5.4,5.7
		c2.5,3.7,3.9,8.2,3.9,13c0,15,1.1,20.4,2.3,25.4C58,52,59.3,60.9,50.8,61z"></path>
  <path fill="#f2f2f2" d="M49,60.7c-0.9-0.3-1.8-0.8-2.7-1.4H17.7c-0.4,0.4-0.9,0.7-1.4,0.9l-2.6,0.1c-0.8,0.7-1.7,0.2-2.7,0.5h0
		C5,59.3,6,52,6,52c1.2-5,2.3-10.4,2.3-25.4c0-4.8,1.4-9.3,3.9-13c1.5-2.2,3.3-4.1,5.4-5.7c3.5-2.7,7.7-4.4,12.4-4.8
		c4.6,0.4,8.9,2.1,12.4,4.8c2.1,1.6,3.9,3.5,5.4,5.7c2.5,3.7,3.9,8.2,3.9,13c0,15,1.1,20.4,2.3,25.4C54,52,55,59.2,49,60.7z"></path>
  <path fill="#1a1a1a" d="M13.3,62C13.3,62,13.2,62,13.3,62c-2.8,0-4.9-0.9-6.3-2.5c-2.6-3-2-7.4-1.9-7.6C6.3,46.3,7.3,41,7.3,26.6
		c0-4.9,1.4-9.6,4.1-13.6c1.5-2.3,3.4-4.3,5.6-6c4.3-3.3,9.4-5,14.9-5h0.2c5.4,0,10.6,1.7,14.9,5c2.2,1.7,4.1,3.7,5.6,6
		c2.7,4,4.1,8.7,4.1,13.6c0,14.4,1,19.7,2.3,25.2c0,0.3,0.6,4.7-1.9,7.7c-1.4,1.7-3.5,2.5-6.3,2.5l0,0c-1.6,0-3.2-0.6-4.8-1.7H18
		C16.6,61.4,15,62,13.3,62z M50.8,61L50.8,61L50.8,61z M7,52.2c0,0-0.4,3.6,1.5,5.9c1,1.2,2.6,1.8,4.7,1.8c0,0,0,0,0.1,0
		c1.3,0,2.6-0.5,3.8-1.5c0.2-0.1,0.4-0.2,0.6-0.2h28.6c0.2,0,0.4,0.1,0.6,0.2c1.3,1,2.7,1.5,3.9,1.5c2.1,0,3.7-0.6,4.8-1.8
		c2-2.3,1.5-5.9,1.5-6c-1.3-5.3-2.3-10.9-2.3-25.5c0-4.5-1.3-8.8-3.8-12.5c-1.4-2.1-3.1-3.9-5.1-5.5c-4-3-8.7-4.6-13.7-4.6h-0.2
		c-5,0-9.7,1.6-13.7,4.6c-2,1.5-3.8,3.4-5.1,5.5c-2.5,3.7-3.8,8-3.8,12.5C9.3,41.2,8.3,46.9,7,52.2C7,52.2,7,52.2,7,52.2z"></path>
  <path fill="#1a1a1a" d="M46.3 60.3c-.2 0-.4-.1-.6-.2-5-3.8-8.8-12.2-10.1-16.1-1.7-5 .4-9.2 3.4-10.7 2.1-1.1 4.4-.6 5.8 1.2l8.8 11.7c.3.4.2 1.1-.2 1.4-.4.3-1.1.2-1.4-.2l-8.8-11.7c-1.1-1.5-2.7-1-3.3-.6-2.2 1.1-3.7 4.4-2.4 8.3 1.5 4.3 5.2 11.9 9.4 15.2.4.3.5 1 .2 1.4C46.9 60.1 46.6 60.3 46.3 60.3zM17.7 60.3c-.3 0-.6-.1-.8-.4-.4-.4-.3-1.1.1-1.4 2.8-2.4 4.8-7 6.8-11.5.6-1.3 1.1-2.6 1.7-3.8 2.2-4.7.6-8.2-1.8-9.3-1.6-.8-3.7-.6-4.8 1.6l-6.8 11.7c-.3.5-.9.6-1.4.4-.5-.3-.6-.9-.4-1.4l6.8-11.7c1.6-3.2 5-3.7 7.5-2.5 3.4 1.7 5.4 6.3 2.7 12-.6 1.2-1.1 2.4-1.7 3.7-2 4.7-4.2 9.6-7.4 12.2C18.2 60.2 17.9 60.3 17.7 60.3z"></path>
  <path fill="#f2f2f2" d="M55.6,8.9c0,2.3-1.7,4.3-3.9,4.6c-0.9-1.3-1.9-2.5-3-3.6c-0.8-0.8-1.5-1.4-2.4-2.1c0.5-2.1,2.4-3.6,4.6-3.6
				C53.5,4.2,55.6,6.3,55.6,8.9z"></path>
  <path fill="#1a1a1a" d="M51.6,14.6c-0.3,0-0.6-0.2-0.8-0.4C50,12.9,49,11.7,48,10.6c-0.8-0.8-1.5-1.4-2.3-2c-0.3-0.2-0.5-0.6-0.4-1
				c0.6-2.6,2.9-4.4,5.6-4.4c3.2,0,5.7,2.6,5.7,5.7c0,2.8-2,5.2-4.8,5.6C51.7,14.6,51.7,14.6,51.6,14.6z M47.4,7.5
				c0.7,0.5,1.3,1.1,1.9,1.7c1,1,1.9,2.1,2.7,3.2c1.5-0.5,2.5-1.9,2.5-3.5c0-2-1.7-3.7-3.7-3.7C49.4,5.2,48,6.1,47.4,7.5z"></path>
  <path fill="#f2f2f2" d="M17.7,7.8c-2.1,1.6-3.9,3.5-5.4,5.7c-2.2-0.4-3.9-2.3-3.9-4.6c0-2.6,2.1-4.7,4.7-4.7
				C15.4,4.2,17.2,5.8,17.7,7.8z"></path>
  <path fill="#1a1a1a" d="M12.4,14.6c-0.1,0-0.1,0-0.2,0c-2.8-0.5-4.8-2.8-4.8-5.6c0-3.2,2.6-5.7,5.7-5.7c2.7,0,5,1.8,5.6,4.4
				c0.1,0.4-0.1,0.8-0.4,1c-2,1.5-3.7,3.4-5.1,5.5C13,14.4,12.7,14.6,12.4,14.6z M13.1,5.2c-2,0-3.7,1.7-3.7,3.7c0,1.6,1,3,2.5,3.5
				c1.3-1.9,2.9-3.5,4.6-4.9C16,6.1,14.6,5.2,13.1,5.2z"></path>
  <circle cx="42.6" cy="18.9" r="2.4" fill="#1a1a1a"></circle>
  <circle cx="21.4" cy="18.9" r="2.4" fill="#1a1a1a"></circle>
  <ellipse cx="32" cy="24.8" fill="#1a1a1a" rx="4.7" ry="1.8"></ellipse>
  <path fill="#1a1a1a" d="M20.2,33.8c-0.5,0-1-0.4-1-0.9c-0.2-2.5,0.7-5.2,2.5-8c0.3-0.5,0.9-0.6,1.4-0.3c0.5,0.3,0.6,0.9,0.3,1.4
			c-1.6,2.4-2.3,4.6-2.2,6.7C21.3,33.3,20.9,33.7,20.2,33.8C20.3,33.8,20.3,33.8,20.2,33.8z"></path>
  <g>
    <path fill="#1a1a1a" d="M43.5,35.5c-0.1,0-0.2,0-0.3,0c-0.5-0.1-0.8-0.7-0.7-1.2c0.7-2.5,0.1-5.3-1.9-8.3c-0.3-0.5-0.2-1.1,0.3-1.4
			c0.5-0.3,1.1-0.2,1.4,0.3c2.3,3.4,3,6.8,2.2,9.9C44.3,35.2,43.9,35.5,43.5,35.5z"></path>
  </g>
  <path fill="#1a1a1a" d="M34.3,39.4C34.3,39.5,34.3,39.5,34.3,39.4C33.8,40.4,33,41,32,41s-1.8-0.6-2.3-1.5c0,0,0,0,0-0.1
		c-0.6-1-0.6-2.3-0.2-3.4l0.3-0.8c0.2-0.5,0.3-1.1,0.3-1.7c0-0.3,0-0.6-0.1-0.8c0-1.5,0.9-2.8,2-2.8c0.5,0,1,0.3,1.4,0.8
		c0.4,0.5,0.6,1.2,0.6,2c-0.2,0.8-0.1,1.7,0.2,2.5l0.3,0.8C34.9,37.1,34.9,38.4,34.3,39.4z"></path>
  <path fill="#ed1c24" d="M34.4,39.1c0,0.1,0,0.2,0,0.3c0,0,0,0,0,0.1C33.8,40.4,33,41,32,41s-1.8-0.6-2.3-1.5c0,0,0,0,0-0.1
		c0-0.1,0-0.2,0-0.3c0-1.7,1.1-3.1,2.4-3.1S34.4,37.4,34.4,39.1z"></path>
</svg>
